<svg width="187" height="27" viewBox="0 0 187 27" fill="none" xmlns="http://www.w3.org/2000/svg">
<g clip-path="url(#clip0_79_507)">
<path d="M18.8101 0.928009V5.57773H11.9742V25.9365H6.81728V5.58186H6.49639C4.43444 5.58186 2.37456 5.58392 0.312605 5.58186C0.207023 5.57979 0.103512 5.55294 0 5.53848V0.936272C0.107652 0.934206 0.215304 0.930075 0.322956 0.930075C6.38253 0.928009 12.4421 0.928009 18.5017 0.928009H18.8101Z" fill="white"/>
<path d="M113.995 16.9965C114.157 16.9697 114.32 16.9449 114.484 16.9221C115.761 16.7362 116.952 16.2963 118.038 15.6187C118.809 15.1375 119.444 14.4909 119.968 13.7494C121.34 11.8097 121.734 9.65529 121.276 7.35212C120.827 5.09439 119.653 3.30143 117.631 2.11783C116.119 1.23581 114.459 0.903241 112.73 0.894979C109.553 0.876388 106.375 0.888782 103.197 0.888782C103.125 0.888782 103.052 0.897045 102.967 0.901176V25.9407H108.004V17.6389C108.031 17.6245 108.058 17.61 108.085 17.5935C108.118 17.6492 108.147 17.7112 108.186 17.7608C110.319 20.4523 112.451 23.1438 114.579 25.8374C114.687 25.9716 114.792 26.0315 114.97 26.0295C116.892 26.0233 118.811 26.0253 120.732 26.0253H121.024C118.645 23.0013 116.302 20.0185 113.964 17.0461C113.987 17.0089 113.989 16.9965 113.995 16.9965ZM111.834 12.4459C111.099 12.4563 110.366 12.4542 109.631 12.4501C109.124 12.4459 108.617 12.4439 108.11 12.4459C108.095 12.4459 108.079 12.4418 108.06 12.4377C108.043 12.4335 108.025 12.4294 108.004 12.4232H108.002V5.5323H108.004C108.05 5.52817 108.097 5.51784 108.143 5.51371C108.159 5.51371 108.174 5.51371 108.19 5.51371C109.432 5.51991 110.675 5.50132 111.917 5.51991C112.329 5.52611 112.743 5.53643 113.155 5.55296C113.271 5.55709 113.385 5.56742 113.496 5.58188C113.552 5.58807 113.608 5.5984 113.664 5.60873C113.772 5.62939 113.879 5.65417 113.983 5.68516C114.088 5.71614 114.19 5.75126 114.289 5.79051C114.438 5.85247 114.579 5.92064 114.716 5.99913C114.807 6.05284 114.894 6.10861 114.979 6.17058C115.105 6.26353 115.223 6.36268 115.335 6.4701C115.449 6.57957 115.55 6.69525 115.643 6.81712C115.707 6.89768 115.767 6.98237 115.821 7.06913C116.246 7.74045 116.434 8.57497 116.297 9.45286C116.014 11.2768 114.879 12.3489 113.024 12.4191C112.629 12.4335 112.231 12.4439 111.834 12.448V12.4459Z" fill="white"/>
<path d="M162.056 19.498C163.991 19.4918 165.929 19.4918 167.906 19.4918C167.867 19.5868 167.838 19.6591 167.805 19.7293C166.111 23.3731 163.281 25.5585 159.304 26.2216C156.826 26.6347 154.367 26.5252 151.978 25.699C148.792 24.598 146.643 22.3961 145.345 19.3348C144.724 17.8703 144.366 16.3396 144.241 14.7532C143.993 11.5866 144.583 8.60182 146.241 5.87313C148.015 2.95441 150.655 1.26679 154.009 0.698747C156.458 0.283556 158.89 0.376509 161.263 1.18004C164.099 2.14055 166.149 4.00994 167.521 6.63948C167.714 7.00923 167.861 7.40169 168.043 7.81482H167.765C165.985 7.81482 164.205 7.81275 162.426 7.81895C162.263 7.81895 162.157 7.77557 162.052 7.64337C160.901 6.1995 159.373 5.46207 157.549 5.29063C156.22 5.16462 154.918 5.28856 153.68 5.81323C151.914 6.56099 150.804 7.9243 150.108 9.66149C149.667 10.7645 149.405 11.913 149.386 13.0966C149.351 15.3771 149.87 17.5088 151.317 19.3369C152.367 20.6651 153.781 21.3839 155.445 21.6132C156.87 21.8094 158.273 21.7206 159.611 21.1505C160.453 20.7911 161.213 20.2994 161.83 19.6095C161.882 19.5496 161.979 19.498 162.056 19.498Z" fill="white"/>
<path d="M68.7731 21.0265C68.7255 21.1112 68.6779 21.1959 68.6054 21.326H79.8468V25.9737H61.0346C60.6495 25.9737 60.5522 25.8043 60.7427 25.4676C64.4318 18.9155 68.121 12.3633 71.8102 5.81321C71.8578 5.72852 71.9012 5.64176 71.9675 5.51163H59.0679C59.1196 5.40422 59.1445 5.33812 59.1797 5.27821C59.9705 3.88805 60.7634 2.49789 61.5501 1.10566C61.6432 0.940406 61.7509 0.882568 61.9414 0.882568C67.8519 0.8867 73.7624 0.8867 79.6729 0.8867C80.0331 0.8867 80.1366 1.06641 79.9565 1.38038C76.2301 7.92841 72.5016 14.4785 68.7731 21.0265Z" fill="white"/>
<path d="M60.6993 21.324C60.6558 21.4128 60.6289 21.4789 60.5937 21.5409C59.8091 22.9538 59.0224 24.3625 58.244 25.7795C58.1591 25.9324 58.0659 25.9778 57.8962 25.9778C51.9629 25.9737 46.0275 25.9737 40.0922 25.9737C39.7506 25.9737 39.6492 25.7899 39.821 25.4842C43.5143 18.9258 47.2076 12.3675 50.8988 5.8091C50.9464 5.72441 50.9878 5.63765 51.0499 5.51785H40.8043V0.886719H58.7305C59.1342 0.886719 59.2315 1.0499 59.0348 1.39693C55.3125 7.93876 51.5882 14.4785 47.8659 21.0203C47.8162 21.105 47.7686 21.1897 47.6941 21.324H60.6993Z" fill="white"/>
<path d="M145.591 25.9138C145.506 25.9179 145.438 25.9241 145.37 25.9241C143.656 25.9262 141.941 25.9221 140.229 25.9303C140.047 25.9303 139.977 25.8642 139.913 25.7072C137.919 20.9315 135.919 16.1558 133.921 11.3801C133.872 11.2603 133.812 11.1467 133.756 11.031C133.733 11.0331 133.71 11.0372 133.689 11.0393C133.302 11.9626 132.913 12.888 132.528 13.8113C131.698 15.8026 130.872 17.7938 130.04 19.783C129.212 21.7619 128.377 23.7387 127.547 25.7176C127.493 25.8456 127.444 25.9303 127.27 25.9303C125.508 25.9221 123.744 25.9241 121.982 25.9241C121.935 25.9241 121.887 25.9179 121.812 25.9117C121.955 25.5998 122.088 25.3106 122.222 25.0194C125.955 16.9552 129.69 8.88894 133.427 0.822683C133.482 0.700811 133.513 0.576874 133.71 0.576874C133.899 0.578939 133.946 0.678089 134.006 0.808224C137.762 8.91993 141.517 17.0296 145.272 25.1392C145.384 25.3829 145.477 25.637 145.591 25.9138Z" fill="white"/>
<path d="M187 0.938349V5.62525H180.17V25.984H175.003V5.63144H174.699C172.622 5.63144 170.544 5.62938 168.465 5.63764C168.242 5.63764 168.19 5.57361 168.192 5.35878C168.2 3.96655 168.2 2.57226 168.192 1.17796C168.192 0.987923 168.235 0.923889 168.438 0.923889C174.564 0.930086 180.69 0.92802 186.816 0.930086C186.872 0.930086 186.928 0.934217 187 0.938349Z" fill="white"/>
<path d="M38.2868 21.3591H21.2157V25.9634H38.2868V21.3591Z" fill="white"/>
<path d="M38.289 0.948669H21.2096V5.55501H38.289V0.948669Z" fill="white"/>
<path d="M38.1999 11.2913H21.2178V15.8976H38.1999V11.2913Z" fill="white"/>
<path d="M100.228 0.94455H83.155V5.47859H100.228V0.94455Z" fill="white"/>
<path d="M100.234 21.4851H83.1592V25.9592H100.234V21.4851Z" fill="white"/>
<path d="M100.141 11.3904H83.1571V15.815H100.141V11.3904Z" fill="white"/>
<path d="M108.004 5.53023C108.05 5.5261 108.097 5.51783 108.143 5.5137C108.097 5.51783 108.05 5.52816 108.004 5.53229V5.53023Z" fill="white"/>
<path d="M113.157 5.54884C113.273 5.55297 113.385 5.5633 113.496 5.57982C113.385 5.56536 113.271 5.55503 113.155 5.5509C112.743 5.53438 112.329 5.52405 111.917 5.51785C112.331 5.52198 112.745 5.53231 113.157 5.54884Z" fill="white"/>
<path d="M114.289 5.78842C114.436 5.84832 114.579 5.91856 114.716 5.99705C114.579 5.91856 114.438 5.85039 114.289 5.78842Z" fill="white"/>
<path d="M114.979 6.16852C115.105 6.25941 115.225 6.36062 115.335 6.46803C115.223 6.36062 115.105 6.26147 114.979 6.16852Z" fill="white"/>
</g>
<defs>
<clipPath id="clip0_79_507">
<rect width="187" height="26" fill="white" transform="translate(0 0.457062)"/>
</clipPath>
</defs>
</svg>
